# xmcd
#
# Track frame offsets: 
#        150
#        25650
#        48012
#        68275
#        90050
#        119412
#        140675
#        166050
#        189312
#        209000
#
# Disc length: 3007 seconds
#
# Revision: 0
# Processed by: cddbd v1.5.2PL0 Copyright (c) Steve Scherf et al.
# Submitted via: ExactAudioCopy v1.0b3
#
DISCID=750bbd0a
DTITLE=Various Artist - Lam Sao Toi Biet
DYEAR=1992
DGENRE=
TTITLE0=Thanh Tuyen - Tua canh beo troi
TTITLE1=Truc Mai - Dem hoa chau
TTITLE2=Kim Tuyen - Ba thang quan truong
TTITLE3=Giao Linh - Tuyet lanh
TTITLE4=Thanh Thuy - Duyen que
TTITLE5=Bang Chau - Viet tu KBC
TTITLE6=Duy Quang - Tinh chet theo mua dong
TTITLE7=Kim Tuyen - Phan gai thuyen quyen
TTITLE8=Thanh Thuy - Gio lanh dem he
TTITLE9=Nhu Mai - Doi thay
EXTD=
EXTT0=
EXTT1=
EXTT2=
EXTT3=
EXTT4=
EXTT5=
EXTT6=
EXTT7=
EXTT8=
EXTT9=
PLAYORDER=
